<svg width="24" height="25" viewBox="0 0 24 25" fill="none" xmlns="http://www.w3.org/2000/svg">
<g id="bx:bx-phone" clip-path="url(#clip0_964_12854)">
<path id="Vector" d="M18.8483 12.9767C18.737 12.8652 18.6047 12.7767 18.4592 12.7163C18.3136 12.656 18.1575 12.6249 17.9999 12.6249C17.8423 12.6249 17.6863 12.656 17.5407 12.7163C17.3951 12.7767 17.2629 12.8652 17.1515 12.9767L15.2388 14.8895C14.352 14.6255 12.6972 14.0255 11.6484 12.9767C10.5996 11.9279 9.99962 10.2731 9.73562 9.38635L11.6484 7.47357C11.7599 7.36223 11.8484 7.22998 11.9088 7.08441C11.9692 6.93883 12.0002 6.78278 12.0002 6.62518C12.0002 6.46758 11.9692 6.31153 11.9088 6.16595C11.8484 6.02038 11.7599 5.88813 11.6484 5.77679L6.84845 0.976838C6.73711 0.865304 6.60486 0.776819 6.45929 0.716447C6.31371 0.656075 6.15766 0.625 6.00006 0.625C5.84246 0.625 5.68641 0.656075 5.54083 0.716447C5.39526 0.776819 5.26301 0.865304 5.15167 0.976838L1.8973 4.23121C1.44131 4.6872 1.18451 5.31359 1.19411 5.95319C1.22171 7.66197 1.6741 13.5971 6.35166 18.2747C11.0292 22.9522 16.9644 23.4034 18.6743 23.4322H18.7079C19.3415 23.4322 19.9403 23.1826 20.3939 22.729L23.6483 19.4747C23.7598 19.3633 23.8483 19.2311 23.9087 19.0855C23.969 18.9399 24.0001 18.7839 24.0001 18.6263C24.0001 18.4687 23.969 18.3126 23.9087 18.167C23.8483 18.0215 23.7598 17.8892 23.6483 17.7779L18.8483 12.9767ZM18.6959 21.031C17.1983 21.0058 12.0744 20.6038 8.04844 16.5767C4.00928 12.5375 3.61808 7.39557 3.59408 5.92799L6.00006 3.52201L9.10323 6.62518L7.55164 8.17677C7.4106 8.3177 7.3069 8.49157 7.24991 8.68264C7.19292 8.87372 7.18445 9.07598 7.22525 9.27115C7.25405 9.40915 7.95844 12.6815 9.95042 14.6735C11.9424 16.6655 15.2148 17.3699 15.3528 17.3987C15.5478 17.4406 15.7503 17.4328 15.9415 17.376C16.1328 17.3192 16.3067 17.2151 16.4472 17.0735L17.9999 15.5219L21.1031 18.6251L18.6959 21.031Z" fill="#8EC2F2"/>
</g>
<defs>
<clipPath id="clip0_964_12854">
<rect width="24" height="24" fill="white" transform="translate(0 0.625)"/>
</clipPath>
</defs>
</svg>
